<?xml version="1.0" encoding="utf-8"?>
<!-- Svg Vector Icons : http://www.onlinewebfonts.com/icon -->
<!DOCTYPE svg PUBLIC "-//W3C//DTD SVG 1.1//EN" "http://www.w3.org/Graphics/SVG/1.1/DTD/svg11.dtd">
<svg version="1.1" xmlns="http://www.w3.org/2000/svg" xmlns:xlink="http://www.w3.org/1999/xlink" x="0px" y="0px" viewBox="0 0 1000 1000" enable-background="new 0 0 1000 1000" xml:space="preserve">
<metadata> Svg Vector Icons : http://www.onlinewebfonts.com/icon </metadata>
<g><path fill="#757575" d="M190.4,445.8c266.2,0,532.3,0,799.6,0c0,3.3,0,5.9,0,8.5c0,29.1,0,58.2,0,87.2c0,9.5,0,9.5-9.7,9.5c-260.1,0-520.3,0-780.4,0c-3.3,0-6.6,0-9.9,0c-0.2,0.6-0.4,1.2-0.6,1.8c1.8,1.9,3.5,3.8,5.4,5.6c78.8,78.9,157.7,157.8,236.5,236.8c20.2,20.3,23.5,47.6,8.5,69.3c-18.5,26.8-56.1,30.9-79.7,8c-26.2-25.5-51.8-51.6-77.6-77.5c-85.2-85.3-170.4-170.5-255.6-255.9c-19.2-19.3-22.2-50-7.2-70.4c2-2.7,4.3-5.3,6.7-7.7C136.7,350.6,247.1,240,357.6,129.5c21.7-21.7,53.5-22.7,74.7-2.9c21.5,20.2,22.5,53.6,1.5,75.1c-25.1,25.6-50.8,50.7-76.3,75.9c-54.2,53.7-108.4,107.5-162.6,161.1c-1.7,1.7-4.3,2.6-6.5,3.9C189,443.7,189.7,444.8,190.4,445.8z"/></g>
</svg>